<?xml version="1.0" encoding="UTF-8"?>
<svg width="586px" height="684px" viewBox="0 0 586 684" version="1.1" xmlns="http://www.w3.org/2000/svg" xmlns:xlink="http://www.w3.org/1999/xlink">
    <title>awesome-rsw</title>
    <defs>
        <linearGradient x1="24.9633895%" y1="-9.29590275%" x2="83.4357297%" y2="61.480063%" id="linearGradient-1">
            <stop stop-color="#41D1FF" offset="0%"></stop>
            <stop stop-color="#BD34FE" offset="100%"></stop>
        </linearGradient>
        <linearGradient x1="7.68651282%" y1="42.2591944%" x2="90.6700513%" y2="55.7806251%" id="linearGradient-2">
            <stop stop-color="#F89C4B" offset="1.614687e-05%"></stop>
            <stop stop-color="#F774B6" offset="100%"></stop>
        </linearGradient>
        <linearGradient x1="12.4949259%" y1="49.9560665%" x2="87.4949259%" y2="50.0439522%" id="linearGradient-3">
            <stop stop-color="#F89C4B" offset="1.614687e-05%"></stop>
            <stop stop-color="#F774B6" offset="100%"></stop>
        </linearGradient>
        <linearGradient x1="46.7886712%" y1="1.3313918%" x2="53.7340458%" y2="88.1365307%" id="linearGradient-4">
            <stop stop-color="#FFEA83" offset="0%"></stop>
            <stop stop-color="#FFDD35" offset="8.33333%"></stop>
            <stop stop-color="#FFA800" offset="100%"></stop>
        </linearGradient>
    </defs>
    <g id="Page-1" stroke="none" stroke-width="1" fill="none" fill-rule="evenodd">
        <g id="awesome-rsw" fill-rule="nonzero">
            <g id="vite-logo">
                <g id="Group" transform="translate(0.000000, 147.000000)">
                    <polyline id="Path" fill="#F89C4D" points="46.2 138.5 171.2 23.8 150.1 0.8 0.1 138.5 0 138.5"></polyline>
                    <polyline id="Path" fill="#F774B6" points="585 138.5 585 138.5 435 0.9 413.9 23.9 538.9 138.5"></polyline>
                    <line x1="404.5" y1="303.6" x2="497" y2="303.6" id="Path" fill="#F774B6"></line>
                    <line x1="268.5" y1="169.6" x2="316.5" y2="169.6" id="Path" fill="#F774B6"></line>
                    <line x1="88" y1="303.6" x2="180.5" y2="303.6" id="Path" fill="#F774B6"></line>
                </g>
                <path d="M553.9,112.8 L307.2,554 C302.1,563.1 289,563.2 283.8,554.1 L32.2,112.8 C26.6,102.9 35,91 46.2,93 L293.2,137.2 C294.8,137.5 296.4,137.5 298,137.2 L539.8,93 C550.9,91 559.4,102.9 553.9,112.8 Z" id="Path" fill="url(#linearGradient-1)"></path>
                <g id="Path" transform="translate(0.000000, 284.485000)">
                    <path d="M0.1,1 L0,1 L0,91.7 C0,132.7 39.5,166.1 88,166.1 L180.5,166.1 C229,166.1 268.5,132.7 268.5,91.7 L268.5,32.1 L316.5,32.1 L316.5,91.7 C316.5,132.7 356,166.1 404.5,166.1 L497,166.1 C545.5,166.1 585,132.7 585,91.7 L585,1 L585,1" fill="url(#linearGradient-2)"></path>
                    <line x1="538.9" y1="1" x2="46.2" y2="1" fill="url(#linearGradient-3)"></line>
                </g>
                <path d="M382.5,0.4 L221.9,31.8 C219.3,32.3 217.3,34.6 217.1,37.2 L207.2,204.1 C207,208 210.6,211.1 214.4,210.2 L259.1,199.9 C263.3,198.9 267.1,202.6 266.2,206.8 L253,271.9 C252.1,276.3 256.2,280 260.5,278.7 L288.1,270.3 C292.4,269 296.5,272.8 295.6,277.1 L274.5,379.3 C273.2,385.7 281.7,389.2 285.2,383.7 L287.6,380 L418.5,118.8 C420.7,114.4 416.9,109.4 412.1,110.4 L366.1,119.3 C361.8,120.1 358.1,116.1 359.3,111.9 L389.3,7.8 C390.5,3.6 386.8,-0.5 382.5,0.4 Z" id="Path" fill="url(#linearGradient-4)"></path>
                <path d="M51.6,619.2 C55.6,619.2 58.9,620.6 61.7,623.4 C64.5,626.2 65.9,629.6 65.9,633.5 L65.9,683.1 L15.2,683.1 C11.2,683.1 7.9,681.7 5.1,678.9 C2.3,676.1 0.9,672.7 0.9,668.8 L0.9,645.2 L54,645.2 L54,633.5 C54,632.8 53.8,632.3 53.3,631.8 C52.8,631.3 52.3,631.1 51.6,631.1 L0.9,631.1 L0.9,619.2 L51.6,619.2 L51.6,619.2 Z M54,671.2 L54,657.1 L12.8,657.1 L12.8,668.8 C12.8,669.5 13,670 13.5,670.5 C14,671 14.5,671.2 15.2,671.2 L54,671.2 L54,671.2 Z M168.7,619.2 L181.4,619.2 L157.4,683.1 L147.7,683.1 L126.2,635.6 L105.9,683.1 L105.7,683 L105.8,683.1 L96.2,683.1 L71.1,619.2 L83.7,619.2 L101,661.6 L119.4,619.2 L133,619.2 L152.5,661.6 L168.7,619.2 Z M235.9,619.2 C239.9,619.2 243.2,620.6 246,623.4 C248.8,626.2 250.2,629.6 250.2,633.5 L250.2,657.1 L197.1,657.1 L197.1,668.8 C197.1,669.5 197.3,670 197.8,670.5 C198.3,671 198.8,671.2 199.5,671.2 L250.2,671.2 L250.2,683.1 L199.5,683.1 C195.5,683.1 192.2,681.7 189.4,678.9 C186.6,676.1 185.2,672.7 185.2,668.8 L185.2,633.5 C185.2,629.5 186.6,626.2 189.4,623.4 C192.2,620.6 195.6,619.2 199.5,619.2 L235.9,619.2 L235.9,619.2 Z M197.1,645.2 L238.3,645.2 L238.3,633.5 C238.3,632.8 238.1,632.3 237.6,631.8 C237.1,631.3 236.6,631.1 235.9,631.1 L199.5,631.1 C198.8,631.1 198.3,631.3 197.8,631.8 C197.3,632.3 197.1,632.8 197.1,633.5 L197.1,645.2 L197.1,645.2 Z M326.1,633.6 L326.1,636 L314.2,636 L314.2,633.6 C314.2,632.9 314,632.4 313.5,631.9 C313,631.4 312.5,631.2 311.8,631.2 L275.4,631.2 C274.7,631.2 274.2,631.4 273.7,631.9 C273.2,632.4 273,632.9 273,633.6 L273,642.9 C273,643.6 273.2,644.1 273.7,644.6 C274.2,645.1 274.7,645.3 275.4,645.3 L311.8,645.3 C315.8,645.3 319.1,646.7 321.9,649.5 C324.7,652.3 326.1,655.7 326.1,659.6 L326.1,668.9 C326.1,672.9 324.7,676.2 321.9,679 C319.1,681.8 315.7,683.2 311.8,683.2 L275.4,683.2 C271.4,683.2 268.1,681.8 265.3,679 C262.5,676.2 261.1,672.8 261.1,668.9 L261.1,666.5 L273,666.5 L273,668.9 C273,669.6 273.2,670.1 273.7,670.6 C274.2,671.1 274.7,671.3 275.4,671.3 L311.8,671.3 C312.5,671.3 313,671.1 313.5,670.6 C314,670.1 314.2,669.6 314.2,668.9 L314.2,659.6 C314.2,658.9 314,658.4 313.5,657.9 C313,657.4 312.5,657.2 311.8,657.2 L275.4,657.2 C271.4,657.2 268.1,655.8 265.3,653 C262.5,650.2 261.1,646.8 261.1,642.9 L261.1,633.6 C261.1,629.6 262.5,626.3 265.3,623.5 C268.1,620.7 271.5,619.3 275.4,619.3 L311.8,619.3 C315.8,619.3 319.1,620.7 321.9,623.5 C324.7,626.2 326.1,629.6 326.1,633.6 Z M351.3,619.2 L387.7,619.2 C391.7,619.2 395,620.6 397.8,623.4 C400.6,626.2 402,629.6 402,633.5 L402,668.8 C402,672.8 400.6,676.1 397.8,678.9 C395,681.7 391.6,683.1 387.7,683.1 L351.3,683.1 C347.3,683.1 344,681.7 341.2,678.9 C338.4,676.1 337,672.7 337,668.8 L337,633.5 C337,629.5 338.4,626.2 341.2,623.4 C344,620.6 347.4,619.2 351.3,619.2 L351.3,619.2 Z M387.7,631.1 L351.3,631.1 C350.6,631.1 350.1,631.3 349.6,631.8 C349.1,632.3 348.9,632.8 348.9,633.5 L348.9,668.8 C348.9,669.5 349.1,670 349.6,670.5 C350.1,671 350.6,671.2 351.3,671.2 L387.7,671.2 C388.4,671.2 388.9,671 389.4,670.5 C389.9,670 390.1,669.5 390.1,668.8 L390.1,633.5 C390.1,632.8 389.9,632.3 389.4,631.8 C388.9,631.4 388.4,631.1 387.7,631.1 Z M495.2,619.2 C499.2,619.2 502.5,620.6 505.3,623.4 C508.1,626.2 509.5,629.6 509.5,633.5 L509.5,683.1 L497.7,683.1 L497.7,633.5 C497.7,632.8 497.5,632.3 497,631.8 C496.5,631.3 495.9,631.1 495.2,631.1 L470,631.1 C469.3,631.1 468.8,631.3 468.3,631.8 C467.8,632.3 467.6,632.8 467.6,633.5 L467.6,683.1 L455.7,683.1 L455.7,633.5 C455.7,632.8 455.5,632.3 455,631.8 C454.5,631.3 454,631.1 453.3,631.1 L428,631.1 C427.3,631.1 426.8,631.3 426.3,631.8 C425.8,632.3 425.6,632.8 425.6,633.5 L425.6,683.1 L413.7,683.1 L413.7,619.2 L495.2,619.2 L495.2,619.2 Z M571.7,619.2 C575.7,619.2 579,620.6 581.8,623.4 C584.6,626.2 586,629.6 586,633.5 L586,657.1 L532.9,657.1 L532.9,668.8 C532.9,669.5 533.1,670 533.6,670.5 C534.1,671 534.6,671.2 535.3,671.2 L586,671.2 L586,683.1 L535.3,683.1 C531.3,683.1 528,681.7 525.2,678.9 C522.4,676.1 521,672.7 521,668.8 L521,633.5 C521,629.5 522.4,626.2 525.2,623.4 C528,620.6 531.4,619.2 535.3,619.2 L571.7,619.2 L571.7,619.2 Z M532.9,645.2 L574.1,645.2 L574.1,633.5 C574.1,632.8 573.9,632.3 573.4,631.8 C572.9,631.3 572.4,631.1 571.7,631.1 L535.3,631.1 C534.6,631.1 534.1,631.3 533.6,631.8 C533.1,632.3 532.9,632.8 532.9,633.5 L532.9,645.2 L532.9,645.2 Z" id="Shape" fill="#494368"></path>
            </g>
            <g id="wasm-log" transform="translate(405.000000, 311.000000)" fill="#654FF0">
                <path d="M66.55,0 C66.55,0.19 66.55,0.38 66.55,0.58 C66.55,7.39519381 61.0251938,12.92 54.21,12.92 C47.3948062,12.92 41.87,7.39519381 41.87,0.58 C41.87,0.38 41.87,0.19 41.87,0 L0.43,0 L0.43,107.62 L108.05,107.62 L108.05,0 L66.55,0 Z M51.79,96.1 L46.55,70.17 L46.46,70.17 L40.79,96.1 L33.57,96.1 L25.39,58 L32.52,58 L37.4,83.93 L37.49,83.93 L43.37,58 L50.04,58 L55.32,84.25 L55.41,84.25 L60.98,58 L67.98,58 L58.89,96.1 L51.79,96.1 Z M91.05,96.1 L88.62,87.62 L75.79,87.62 L73.92,96.1 L66.79,96.1 L76.01,58 L87.26,58 L98.47,96.1 L91.05,96.1 Z" id="Shape"></path>
                <polygon id="Path" points="80.3 67.39 77.19 81.37 86.87 81.37 83.3 67.39"></polygon>
            </g>
            <g id="rust-logo" transform="translate(78.000000, 317.000000)" fill="#000000">
                <path d="M55.36,94.74 L55.9006007,95.3194515 C55.5832544,95.3537507 55.2649107,95.3847232 54.9456053,95.4123336 L51.05,101.7 L47.1563954,95.4125066 C46.8367544,95.3848816 46.518077,95.3538874 46.200399,95.3195596 L46.74,94.74 L47.1563954,95.4125066 C48.4395046,95.5233992 49.7381424,95.58 51.05,95.58 C52.3625395,95.58 53.6618454,95.5233404 54.9456053,95.4123336 L55.36,94.74 Z M63.82,93.06 L64.4702191,93.5270104 C64.1619166,93.624093 63.8521701,93.7179195 63.54102,93.8084496 L60.95,100.72 L55.9006007,95.3194515 C58.5221536,95.0361112 61.0756465,94.5257574 63.54102,93.8084496 L63.82,93.06 Z M38.28,93.06 L38.5599785,93.8087401 C41.0253564,94.5259864 43.5788495,95.0362792 46.200399,95.3195596 L41.15,100.72 L38.5599785,93.8087401 C38.2488279,93.7182178 37.9390808,93.6243991 37.6307776,93.5273242 L38.28,93.06 Z M71.79,89.75 L72.5218577,90.0848872 C72.2366196,90.24172 71.9494817,90.395525 71.6604874,90.546259 L70.47,97.84 L64.4702191,93.5270104 C66.968983,92.7401644 69.3728956,91.7394241 71.6604874,90.546259 L71.79,89.75 Z M30.31,89.75 L30.4395126,90.546259 C32.7274086,91.7395827 35.1316563,92.7404305 37.6307776,93.5273242 L31.63,97.84 L30.4395126,90.546259 C30.1505183,90.395525 29.8633804,90.24172 29.5781423,90.0848872 L30.31,89.75 Z M78.96,84.96 L79.7335556,85.1433186 C79.4874538,85.3499815 79.2390887,85.5540365 78.9885026,85.7554411 L79.25,93.15 L72.5218577,90.0848872 C74.8067195,88.8285995 76.9696842,87.3780345 78.9885026,85.7554411 L78.96,84.96 Z M23.14,84.96 L23.1114974,85.7554411 C25.1303158,87.3780345 27.2932805,88.8285995 29.5781423,90.0848872 L22.85,93.15 L23.1114974,85.7554411 C22.8609113,85.5540365 22.6125462,85.3499815 22.3664444,85.1433186 L23.14,84.96 Z M85.06,78.86 L85.8554411,78.8885026 C85.6540365,79.1390887 85.4499815,79.3874538 85.2433186,79.6335556 L86.94,86.84 L79.7335556,85.1433186 C81.7260313,83.4701457 83.5701457,81.6260313 85.2433186,79.6335556 L85.06,78.86 Z M17.04,78.86 L16.857523,79.6345578 C18.5304728,81.6266497 20.3743028,83.4704262 22.3664444,85.1433186 L15.16,86.84 L16.857523,79.6345578 C16.6505725,79.3881282 16.4462369,79.1394288 16.2445589,78.8885026 L17.04,78.86 Z M93.25,22.75 L90.1848872,29.4781423 C90.3419015,29.7637106 90.4958811,30.0511831 90.6467825,30.3405162 L97.94,31.53 L93.6273242,37.5307776 C93.7243991,37.8390808 93.8182178,38.1488279 93.9087401,38.4599785 L100.82,41.05 L95.4195596,46.100399 C95.4538874,46.418077 95.4848816,46.7367544 95.5125066,47.0563954 L101.8,50.95 L95.5123336,54.8456053 C95.4847232,55.1649107 95.4537507,55.4832544 95.4194515,55.8006007 L100.82,60.85 L93.9084496,63.44102 C93.8179195,63.7521701 93.724093,64.0619166 93.6270104,64.3702191 L97.94,70.37 L90.646259,71.5604874 C90.495525,71.8494817 90.34172,72.1366196 90.1848872,72.4218577 L93.25,79.15 L85.8554411,78.8885026 C87.4780345,76.8696842 88.9285995,74.7067195 90.1848872,72.4218577 L89.85,71.69 L90.646259,71.5604874 C91.8394241,69.2728956 92.8401644,66.868983 93.6270104,64.3702191 L93.16,63.72 L93.9084496,63.44102 C94.6257574,60.9756465 95.1361112,58.4221536 95.4194515,55.8006007 L94.84,55.26 L95.5123336,54.8456053 C95.6233404,53.5618454 95.68,52.2625395 95.68,50.95 C95.68,49.6381424 95.6233992,48.3395046 95.5125066,47.0563954 L94.84,46.64 L95.4195596,46.100399 C95.1362792,43.4788495 94.6259864,40.9253564 93.9087401,38.4599785 L93.16,38.18 L93.6273242,37.5307776 C92.8405455,35.0320217 91.8398754,32.6281117 90.6467825,30.3405162 L89.85,30.21 L90.1848872,29.4781423 C88.9288057,27.1936555 87.4785106,25.0310258 85.85624,23.0124914 L93.25,22.75 Z M8.85,22.75 L16.2445589,23.0114974 C14.622202,25.0300217 13.1718232,27.1926502 11.9156619,29.4771435 L12.25,30.21 L11.453741,30.3395126 C10.2605759,32.6271044 9.25983563,35.031017 8.47298963,37.5297809 L8.94,38.18 L8.1912599,38.4599785 C7.47410479,40.925043 6.96385059,43.4782003 6.68054845,46.0993993 L7.26,46.64 L6.58749345,47.0563954 C6.47660077,48.3395046 6.42,49.6381424 6.42,50.95 C6.42,52.2621985 6.47663019,53.5611704 6.58757991,54.8446049 L7.26,55.26 L6.68065652,55.8016005 C6.96401859,58.4228028 7.47433377,60.9759599 8.1915504,63.44102 L8.94,63.72 L8.4733035,64.3712158 C9.26010176,66.8696222 10.2607346,69.2731997 11.453741,71.5604874 L12.25,71.69 L11.9156619,72.4228565 C13.1718232,74.7073498 14.622202,76.8699783 16.2445589,78.8885026 L8.85,79.15 L11.9156619,72.4228565 C11.758639,72.1372898 11.6046509,71.849819 11.453741,71.5604874 L4.16,70.37 L8.4733035,64.3712158 C8.3761092,64.0625842 8.28217801,63.7525054 8.1915504,63.44102 L1.28,60.85 L6.68065652,55.8016005 C6.64627853,55.4835916 6.61524106,55.1645811 6.58757991,54.8446049 L0.3,50.95 L6.58749345,47.0563954 C6.6151474,46.7364191 6.64617767,46.4174084 6.68054845,46.0993993 L1.28,41.05 L8.1912599,38.4599785 C8.28187973,38.1484926 8.37580312,37.8384132 8.47298963,37.5297809 L4.16,31.53 L11.453741,30.3395126 C11.6046509,30.050181 11.758639,29.7627102 11.9156619,29.4771435 L8.85,22.75 Z M86.94,15.06 L85.2433186,22.2664444 C85.4502548,22.5128715 85.6545761,22.7615681 85.85624,23.0124914 L85.06,23.04 L85.2433186,22.2664444 C83.5704262,20.2743028 81.7266497,18.4304728 79.7345578,16.757523 L86.94,15.06 Z M15.16,15.06 L22.3654422,16.757523 C20.3736844,18.4301922 18.5301922,20.2736844 16.857523,22.2654422 L17.04,23.04 L16.2445589,23.0114974 C16.4462369,22.7605712 16.6505725,22.5118718 16.857523,22.2654422 L15.16,15.06 Z M79.25,8.75 L78.9885026,16.1445589 C79.2394288,16.3462369 79.4881282,16.5505725 79.7345578,16.757523 L78.96,16.94 L78.9885026,16.1445589 C76.9699783,14.522202 74.8073498,13.0718232 72.5228565,11.8156619 L79.25,8.75 Z M22.85,8.75 L29.5771435,11.8156619 C27.2930252,13.071617 25.1307317,14.5217258 23.1124914,16.14376 L23.14,16.94 L22.3654422,16.757523 C22.6121972,16.5502992 22.8612279,16.3456973 23.1124914,16.14376 L22.85,8.75 Z M70.47,4.06 L71.6604874,11.353741 C71.949819,11.5046509 72.2372898,11.658639 72.5228565,11.8156619 L71.79,12.15 L71.6604874,11.353741 C69.3731997,10.1607346 66.9696222,9.16010176 64.4712158,8.3733035 L70.47,4.06 Z M31.63,4.06 L37.6297809,8.37298963 C35.1313824,9.15972057 32.7278075,10.1602832 30.4405162,11.3532175 L30.31,12.15 L29.5771435,11.8156619 C29.8630403,11.6584575 30.1508458,11.5042948 30.4405162,11.3532175 L31.63,4.06 Z M60.95,1.18 L63.54102,8.0915504 C63.8525054,8.18217801 64.1625842,8.2761092 64.4712158,8.3733035 L63.82,8.84 L63.54102,8.0915504 C61.0759599,7.37433377 58.5228028,6.86401859 55.9016005,6.58065652 L60.95,1.18 Z M41.15,1.18 L46.1993993,6.58054845 C43.5782003,6.86385059 41.025043,7.37410479 38.5599785,8.0912599 L38.28,8.84 L37.6297809,8.37298963 C37.9384132,8.27580312 38.2484926,8.18187973 38.5599785,8.0912599 L41.15,1.18 Z M51.05,0.2 L54.9446049,6.48757991 C55.2645811,6.51524106 55.5835916,6.54627853 55.9016005,6.58065652 L55.36,7.16 L54.9446049,6.48757991 C53.6611704,6.37663019 52.3621985,6.32 51.05,6.32 C49.7381424,6.32 48.4395046,6.37660077 47.1563954,6.48749345 L46.74,7.16 L46.1993993,6.58054845 C46.5174084,6.54617767 46.8364191,6.5151474 47.1563954,6.48749345 L51.05,0.2 Z" id="Shape" stroke="#000000" stroke-width="3" stroke-linecap="round" stroke-linejoin="round"></path>
                <path d="M51.05,3.68 C24.99,3.68 3.78,24.9 3.78,50.95 C3.78,77 25,98.22 51.05,98.22 C77.1,98.22 98.32,77 98.32,50.95 C98.32,24.9 77.1,3.68 51.05,3.68 L51.05,3.68 Z M50.98,7.88 C52.6607614,7.92352881 54.0005599,9.30325517 54.0000002,10.99 C54.0000002,12.7076056 52.6076056,14.1 50.89,14.1 C49.1723944,14.1 47.7799997,12.7076056 47.7799997,10.99 C47.7796479,10.1493438 48.1196331,9.344352 48.7224841,8.75845627 C49.325335,8.17256054 50.1396958,7.85567225 50.98,7.88 Z M58.1,13 C69.1502225,15.0697438 78.7314324,21.8936132 84.3,31.66 L80.63,39.94 C80,41.37 80.65,43.05 82.07,43.69 L89.13,46.82 C89.3490041,49.0268347 89.3757715,51.2485294 89.21,53.46 L85.28,53.46 C84.89,53.46 84.73,53.72 84.73,54.1 L84.73,55.9 C84.73,60.14 82.34,61.07 80.24,61.3 C78.24,61.53 76.03,60.46 75.75,59.24 C74.57,52.61 72.61,51.2 69.51,48.75 C73.36,46.31 77.36,42.7 77.36,37.88 C77.36,32.67 73.79,29.39 71.36,27.78 C67.94,25.53 64.16,25.08 63.14,25.08 L22.54,25.08 C28.1540106,18.8084062 35.6790698,14.5625997 43.95,13 L48.74,18.02 C49.82,19.15 51.61,19.2 52.74,18.11 L58.1,13 Z M13.9,36.02 C15.5823588,36.0687059 16.9207049,37.4469365 16.9200003,39.13 C16.9200003,40.8476056 15.5276056,42.24 13.81,42.24 C12.0923944,42.24 10.6999997,40.8476056 10.6999997,39.13 C10.6996479,38.2893438 11.0396331,37.484352 11.6424841,36.8984563 C12.245335,36.3125605 13.0596958,35.9956723 13.9,36.02 L13.9,36.02 Z M88.05,36.16 C89.7323588,36.2087059 91.0707049,37.5869365 91.0700003,39.27 C91.0700003,40.9876056 89.6776056,42.38 87.96,42.38 C86.2423944,42.38 84.8499997,40.9876056 84.8499997,39.27 C84.8496479,38.4293438 85.1896331,37.624352 85.7924841,37.0384563 C86.395335,36.4525605 87.2096958,36.1356723 88.05,36.16 Z M19.76,36.66 L25.18,36.66 L25.18,61.1 L14.24,61.1 C12.8888795,56.3554398 12.4678195,51.3944023 13,46.49 L19.7,43.51 C21.13,42.87 21.78,41.2 21.14,39.77 L19.76,36.66 Z M42.38,36.92 L55.29,36.92 C55.96,36.92 60,37.69 60,40.72 C60,43.23 56.9,44.13 54.35,44.13 L42.37,44.13 L42.38,36.92 Z M42.38,54.48 L52.27,54.48 C53.17,54.48 57.1,54.74 58.35,59.76 C58.74,61.3 59.61,66.32 60.2,67.93 C60.79,69.73 63.18,73.33 65.73,73.33 L81.87,73.33 C80.7883226,74.7785654 79.6053601,76.1486631 78.33,77.43 L71.76,76.02 C70.23,75.69 68.72,76.67 68.39,78.2 L66.83,85.48 C56.6788391,90.078444 45.0274812,90.0236742 34.92,85.33 L33.36,78.05 C33.03,76.52 31.53,75.54 30,75.87 L23.57,77.25 C22.3767861,76.0191662 21.2676213,74.70955 20.25,73.33 L51.52,73.33 C51.87,73.33 52.11,73.27 52.11,72.94 L52.11,61.88 C52.11,61.56 51.87,61.49 51.52,61.49 L42.37,61.49 L42.38,54.48 Z M27.95,79.81 C29.6323588,79.8587059 30.9707049,81.2369365 30.9700003,82.92 C30.9700003,84.6376055 29.5776055,86.0299999 27.86,86.0299999 C26.1423945,86.0299999 24.7499997,84.6376055 24.7499997,82.92 C24.7496479,82.0793438 25.0896331,81.274352 25.6924841,80.6884563 C26.295335,80.1025605 27.1096958,79.7856723 27.95,79.81 Z M74,79.95 C75.6823588,79.9987059 77.0207049,81.3769365 77.0200003,83.06 C77.0200003,84.7776055 75.6276055,86.1699998 73.91,86.1699998 C72.1923945,86.1699998 70.7999997,84.7776055 70.7999997,83.06 C70.7996479,82.2193438 71.1396331,81.414352 71.7424841,80.8284563 C72.345335,80.2425605 73.1596958,79.9256723 74,79.95 L74,79.95 Z" id="Shape"></path>
            </g>
        </g>
    </g>
</svg>